# xmcd
#
# Track frame offsets:
#	150
#	17110
#	32970
#	42077
#	56232
#	66467
#	77565
#	92082
#	104062
#	119800
#	135852
#	157205
#	175427
#	184742
#	195400
#	209460
#	224302
#	239842
#	256912
#	266027
#
# Disc length: 3725 seconds
#
# Revision: 2
# Processed by: cddbd v1.4b42PL1 Copyright (c) Steve Scherf et al.
# Submitted via: audiograbber 1.80
#
DISCID=380e8b14
DTITLE=Tommy Scott - Tommy Scott's Scotland
DYEAR=1900
DGENRE=
TTITLE0=Sailing
TTITLE1=The Water is Wide
TTITLE2=The Piper O' Dundee
TTITLE3=It Is No Secret
TTITLE4=Marching Home
TTITLE5=The Twelfth of Never
TTITLE6=My Grannies Party  The Govan Billiard Hall  Fitba'  Crazy
TTITLE7=Dream Angus
TTITLE8=Charmaine  Marie  Dianne
TTITLE9=A Wee Aberdonian  Kilty Kilty Caulbum  A Doo Fell Aff A Dyke  We Were O
TTITLE9=nly Playing Leave O'
TTITLE10=The Blackboard of My Heart  Stand Beside Me  Too Young
TTITLE11=Long Black Veil
TTITLE12=The Atholl Highlanders
TTITLE13=The Minute You're Gone
TTITLE14=Stop
TTITLE15=A Heartache Following Me  He'll Have To Go
TTITLE16=The Island of Tiree
TTITLE17=Mull of Kintyre
TTITLE18=From A Jack To King
TTITLE19=Dumbarton's Drums
EXTD=
EXTT0=
EXTT1=
EXTT2=
EXTT3=
EXTT4=
EXTT5=
EXTT6=
EXTT7=
EXTT8=
EXTT9=
EXTT10=
EXTT11=
EXTT12=
EXTT13=
EXTT14=
EXTT15=
EXTT16=
EXTT17=
EXTT18=
EXTT19=
PLAYORDER=
